# xmcd CD database file
#
# Track frame offsets:
#	150
#	12743
#	25005
#	36654
#	48874
#	63141
#	75823
#	86151
#	101014
#	112634
#	126174
#	140280
#	153694
#	166807
#	176764
#	188840
#	204008
#	217402
#	232384
#	245115
#	260334
#	272364
#	287167
#	301548
#
# Disc length: 4186 seconds
#
# Revision: 0
# Processed by: cddbd v1.4PL0 Copyright (c) Steve Scherf et al.
# Submitted via: CDex 1.50
#
DISCID=4b105818
DTITLE=Muddy Waters - The Chess Box, Disc 2, 1947 - 1954
DYEAR=2001
DGENRE=Blues
TTITLE0=Gypsy Woman (1947)
TTITLE1=Good Looking Woman (1948)
TTITLE2=Mean Disposition (1948)
TTITLE3=I Can't Be Satisfied (1948)
TTITLE4=I Feel Like Going Home (1948)
TTITLE5=Train Fare Home Blues (1948)
TTITLE6=Mean Red Spider (1948)
TTITLE7=Streamline Woman (1948)
TTITLE8=Little Geneva (1949)
TTITLE9=Rollin' And Tumblin', Part 1 (1950)
TTITLE10=Rolling Stone (1950)
TTITLE11=Walkin' Blues (1950)
TTITLE12=Louisiana Blues (1950)
TTITLE13=Evans Shuffle (1950)
TTITLE14=Long Distance Call (1951)
TTITLE15=Honey Bee (1951)
TTITLE16=She Moves Me (1951)
TTITLE17=Still A Fool (1951)
TTITLE18=Stuff You Gotta Watch (1951)
TTITLE19=Staning Around Crying (1952)
TTITLE20=Flood (1952)
TTITLE21=Baby Please Don't Go (1953)
TTITLE22=Blow Wind Blow (1953)
TTITLE23=Hoochie Coohie Man (1954)
EXTD=YEAR: 2001
EXTT0=
EXTT1=
EXTT2=
EXTT3=
EXTT4=
EXTT5=
EXTT6=
EXTT7=
EXTT8=
EXTT9=
EXTT10=
EXTT11=
EXTT12=
EXTT13=
EXTT14=
EXTT15=
EXTT16=
EXTT17=
EXTT18=
EXTT19=
EXTT20=
EXTT21=
EXTT22=
EXTT23=
PLAYORDER=
